<?xml version="1.0" encoding="UTF-8"?>
<svg width="23px" height="20px" viewBox="0 0 23 20" version="1.1" xmlns="http://www.w3.org/2000/svg" xmlns:xlink="http://www.w3.org/1999/xlink">
    <!-- Generator: Sketch 50.2 (55047) - http://www.bohemiancoding.com/sketch -->
    <title>icon_系统服务 copy</title>
    <desc>Created with Sketch.</desc>
    <defs></defs>
    <g id="餐厅后台-UI3.0---UI-KIT" stroke="none" stroke-width="1" fill="none" fill-rule="evenodd">
        <g id="餐厅门店系统-3.0-MAIN-INDEX" transform="translate(-24.000000, -831.000000)" fill="#FFFFFF" fill-rule="nonzero">
            <path d="M44.2918946,842.159598 C44.5695026,842.550693 44.7691509,842.997423 44.8692017,843.478894 L45.8454131,843.478894 C46.2345575,843.478894 46.5403138,843.774114 46.5403138,844.149848 C46.5403138,844.525582 46.2345575,844.820802 45.8454131,844.820802 L44.884942,844.820802 C44.7943175,845.315344 44.5990032,845.775008 44.3219017,846.17768 L44.9976344,846.806824 C45.2755946,847.061787 45.2755946,847.491197 45.0115324,847.759578 C44.8725523,847.893769 44.6918781,847.960864 44.511204,847.960864 C44.3444278,847.960864 44.1637537,847.893769 44.0247735,847.772997 L43.3463288,847.141328 C42.9388668,847.415882 42.4719012,847.613783 41.9678677,847.713367 L41.9678677,848.618399 C41.9678677,848.994133 41.6621115,849.289353 41.2729671,849.289353 C40.8838228,849.289353 40.5780665,848.994133 40.5780665,848.618399 L40.5780665,847.733632 C40.0547345,847.646208 39.568803,847.453317 39.1446088,847.178457 L38.5211607,847.813255 C38.3682826,847.960864 38.1876084,848.02796 38.0069343,848.02796 C37.8401581,848.02796 37.659484,847.960864 37.5344019,847.840093 C37.2564416,847.58513 37.2425436,847.15572 37.5066058,846.887339 L38.1506584,846.231561 C37.8638093,845.830625 37.6591172,845.370701 37.5600819,844.874478 L36.6310311,844.874478 C36.2418867,844.874478 35.9361305,844.579258 35.9361305,844.203524 C35.9361305,843.82779 36.2418867,843.532571 36.6310311,843.532571 L37.5548355,843.532571 C37.6514762,843.027641 37.857379,842.559678 38.1479787,842.152399 L37.4649118,841.492872 C37.1869516,841.22449 37.1869516,840.808499 37.4649118,840.540118 C37.742872,840.271736 38.1737104,840.271736 38.4516707,840.540118 L39.1400113,841.204737 C39.5464747,840.940521 40.0098225,840.751644 40.5085765,840.658846 L40.5085765,839.721554 C40.5085765,839.34582 40.8143327,839.050601 41.2034771,839.050601 C41.5926214,839.050601 41.8983777,839.34582 41.8983777,839.721554 L41.8983777,840.653781 C42.4107493,840.745203 42.8863683,840.937897 43.3021305,841.209555 L43.9830795,840.540118 C44.2471417,840.271736 44.6918781,840.271736 44.9698384,840.526699 C45.2477986,840.781661 45.2477986,841.211071 44.9837364,841.479453 L44.2918946,842.159598 Z M26.6897648,842.418091 L25.8812442,841.633772 C23.3729186,839.208896 23.3729186,835.255543 25.8812442,832.830667 C27.3838733,831.371144 29.5254155,830.727575 31.6196307,831.106821 C31.9390873,831.164283 32.1520583,831.463083 32.0928997,831.773375 C32.0337411,832.083667 31.7261163,832.290529 31.4066597,832.233067 C29.6910596,831.922775 27.9399643,832.451421 26.709465,833.635128 C24.6744083,835.623297 24.6744083,838.841142 26.709465,840.829311 L35.500337,849.357049 L36.2458351,848.644078 C36.4824696,848.425724 36.8492531,848.425724 37.0858876,848.644078 C37.3106903,848.873924 37.3106903,849.230185 37.0858876,849.460031 L36.0560786,850.438394 C36.0272478,850.49554 35.9879583,850.549448 35.9382103,850.597769 C35.8911465,850.643483 35.8348378,850.680217 35.7733703,850.706979 L35.4649413,851 L26.8277822,842.62211 C26.765254,842.561376 26.7192482,842.491815 26.6897648,842.418091 Z M45.9596811,840.013357 C45.8886908,840.013357 45.8058687,840.001865 45.7348783,839.967388 C45.4390852,839.840972 45.2852728,839.507696 45.4154218,839.220388 C46.2318108,837.312666 45.794037,835.083158 44.3032396,833.669605 C42.2563513,831.681436 38.9434683,831.681436 36.89658,833.669605 L32.4715149,837.93325 C32.2348804,838.151604 31.8680969,838.151604 31.6314625,837.93325 C31.4066597,837.703404 31.4066597,837.347142 31.6314625,837.117296 L36.0565275,832.842159 C38.5530214,830.417283 42.6231347,830.417283 45.1314604,832.842159 C46.953546,834.577497 47.509637,837.324158 46.5039404,839.657096 C46.4092866,839.875449 46.1963156,840.013357 45.9596811,840.013357 Z M41.2173751,841.935701 C39.92486,841.935701 38.882509,842.942132 38.882509,844.190105 C38.882509,845.438079 39.92486,846.444509 41.2173751,846.444509 C42.5098902,846.444509 43.5522411,845.438079 43.5522411,844.190105 C43.5522411,842.942132 42.5098902,841.935701 41.2173751,841.935701 Z" id="icon_系统服务-copy"></path>
        </g>
    </g>
</svg>