<?xml version="1.0" encoding="UTF-8"?>
<svg width="26px" height="19px" viewBox="0 0 26 19" version="1.1" xmlns="http://www.w3.org/2000/svg" xmlns:xlink="http://www.w3.org/1999/xlink">
    <!-- Generator: Sketch 50 (54983) - http://www.bohemiancoding.com/sketch -->
    <title>icon_菜品管理</title>
    <desc>Created with Sketch.</desc>
    <defs></defs>
    <g id="餐厅后台-UI3.0---UI-KIT" stroke="none" stroke-width="1" fill="none" fill-rule="evenodd">
        <g id="餐厅门店系统-3.0-MAIN-INDEX" transform="translate(-22.000000, -233.000000)" fill="#6f6f6f" fill-rule="nonzero">
            <g id="icon_菜品管理" transform="translate(22.000000, 233.000000)">
                <path d="M25.0689655,17.8823529 L0.931034483,17.8823529 C0.418965517,17.8823529 0,18.1338235 0,18.4411765 C0,18.7485294 0.418965517,19 0.931034483,19 L25.0689655,19 C25.5810345,19 26,18.7485294 26,18.4411765 C26,18.1338235 25.5810345,17.8823529 25.0689655,17.8823529 Z M2.07275391,17.1052246 L23.0273438,17.1052246 C23.5574219,17.1052246 24,16.324016 24,15.7785467 L24,14.7923875 C24,8.81071583 19.6815104,3.87991998 14.08125,3.08482915 C14.2908854,2.76740917 14.4166667,2.38527249 14.4166667,1.97231834 C14.4166667,0.884461505 13.5571615,0 12.5,0 C11.4428385,0 10.5833333,0.884461505 10.5833333,1.97231834 C10.5833333,2.38527249 10.7061198,2.76740917 10.91875,3.08482915 C5.31549479,3.87991998 1,8.81071583 1,14.7923875 L1,15.7785467 C1,16.324016 1.54267578,17.1052246 2.07275391,17.1052246 Z M1.98510742,15.4784069 C1.98510742,10.0720387 5.89375,5.08728992 11.053125,4.34784664 C11.56875,4.27325368 12.009375,3.92947742 12.21875,3.43651523 C12.428125,2.94355305 12.378125,2.37275473 12.084375,1.92844013 C12.028125,1.84087447 11.996875,1.74357931 11.996875,1.63655462 C11.996875,1.35115546 12.221875,1.11764706 12.496875,1.11764706 C12.771875,1.11764706 12.996875,1.35115546 12.996875,1.63655462 C12.996875,1.74357931 12.96875,1.84087447 12.909375,1.92844013 C12.615625,2.37275473 12.565625,2.94355305 12.775,3.43651523 C12.984375,3.92947742 13.428125,4.27325368 13.940625,4.34784664 C19.10625,5.08728992 22.9851074,10.0720387 22.9851074,15.4784069 L22.9851074,15.9973145 L1.98510742,15.9973145 L1.98510742,15.4784069 Z" id="Shape"></path>
                <path d="M8.72654751,6.54424991 C7.4881924,7.22764772 6.46484386,8.35525412 5.84463262,9.71977176 C5.72265774,9.9885749 5.82189154,10.3188838 6.06584129,10.4532854 C6.1361319,10.4920113 6.21262462,10.5102352 6.28704997,10.5102352 C6.4689786,10.5102352 6.64470512,10.4008916 6.73153469,10.2072622 C7.25664687,9.05231989 8.12287524,8.09784094 9.17103223,7.51923079 C9.41498199,7.38255123 9.51628315,7.05452028 9.39224091,6.78571714 C9.26819866,6.51919199 8.97049726,6.40984834 8.72654751,6.54424991 Z" id="Shape"></path>
            </g>
        </g>
    </g>
</svg>
