<?xml version="1.0" encoding="UTF-8"?>
<svg width="21px" height="22px" viewBox="0 0 21 22" version="1.1" xmlns="http://www.w3.org/2000/svg" xmlns:xlink="http://www.w3.org/1999/xlink">
    <!-- Generator: Sketch 50.2 (55047) - http://www.bohemiancoding.com/sketch -->
    <title>icon_账单管理 copy</title>
    <desc>Created with Sketch.</desc>
    <defs></defs>
    <g id="餐厅后台-UI3.0---UI-KIT" stroke="none" stroke-width="1" fill="none" fill-rule="evenodd">
        <g id="餐厅门店系统-3.0-MAIN-INDEX" transform="translate(-25.000000, -784.000000)" fill="#6f6f6f" fill-rule="nonzero">
            <path d="M43.4117831,806 L31.7989192,806 C31.4917867,806 31.2428272,805.779812 31.2428272,805.508269 C31.2428272,805.236683 31.4917867,805.016538 31.7989192,805.016538 L43.4117831,805.016538 C44.2257208,805.016538 44.887816,804.4309 44.887816,803.710822 L44.887816,789.946169 C44.887816,789.674583 45.1367755,789.454438 45.443908,789.454438 C45.750992,789.454438 46,789.674583 46,789.946169 L46,803.710779 C46,804.973041 44.8389662,806 43.4117831,806 Z M40.8684828,802.685744 L40.8683371,802.685744 L26.9330656,802.685744 C25.8671578,802.685744 25,801.918863 25,800.976407 L25,785.709337 C25,784.766795 25.8671578,784 26.9330656,784 L40.867803,784 C41.9337107,784 42.8008685,784.766795 42.8008685,785.709337 L42.8008685,800.976235 C42.8008685,801.918648 41.9340021,802.685486 40.8684828,802.685744 Z M26.9330656,784.983505 C26.4804032,784.983505 26.1122326,785.309108 26.1122326,785.709337 L26.1122326,800.97645 C26.1122326,801.376722 26.4804517,801.702282 26.9330656,801.702282 L40.8683371,801.702282 L40.8681914,801.702282 C41.3205625,801.702067 41.688636,801.376464 41.688636,800.976235 L41.6886359,785.709337 C41.6886359,785.309108 41.3204168,784.983505 40.8678029,784.983505 L26.9330656,784.983505 Z M37.0272622,789.282118 L28.5405464,789.282118 C28.2334138,789.282118 27.9844544,789.061929 27.9844544,788.790386 C27.9844544,788.518843 28.2334138,788.298655 28.5405464,788.298655 L37.0272622,788.298655 C37.3343461,788.298655 37.5833541,788.518843 37.5833541,788.790386 C37.5833541,789.061929 37.3343461,789.282118 37.0272622,789.282118 Z M39.2603222,793.834754 L28.5404978,793.834754 C28.2333653,793.834754 27.9844058,793.614565 27.9844058,793.343022 C27.9844058,793.071437 28.2333653,792.851291 28.5404978,792.851291 L39.2603222,792.851291 C39.5674062,792.851291 39.8164142,793.071437 39.8164142,793.343022 C39.8164627,793.614565 39.5674547,793.834754 39.2603222,793.834754 Z M39.2603222,798.366178 L28.5404978,798.366178 C28.2333653,798.366178 27.9844058,798.14599 27.9844058,797.874447 C27.9844058,797.602861 28.2333653,797.382715 28.5404978,797.382715 L39.2603222,797.382715 C39.5674062,797.382715 39.8164142,797.602861 39.8164142,797.874447 C39.8164627,798.145989 39.5674547,798.366178 39.2603222,798.366178 Z" id="icon_账单管理-copy"></path>
        </g>
    </g>
</svg>
