<?xml version="1.0" encoding="UTF-8"?>
<svg width="22px" height="22px" viewBox="0 0 22 22" version="1.1" xmlns="http://www.w3.org/2000/svg" xmlns:xlink="http://www.w3.org/1999/xlink">
    <!-- Generator: Sketch 50.2 (55047) - http://www.bohemiancoding.com/sketch -->
    <title>icon_员工管理 copy</title>
    <desc>Created with Sketch.</desc>
    <defs></defs>
    <g id="餐厅后台-UI3.0---UI-KIT" stroke="none" stroke-width="1" fill="none" fill-rule="evenodd">
        <g id="餐厅门店系统-3.0-MAIN-INDEX" transform="translate(-24.000000, -738.000000)" fill="#6f6f6f" fill-rule="nonzero">
            <path d="M44.823873,738 C45.4746528,738.00231 46.0007743,738.530931 46,739.181714 L46,758.821079 C46.0000018,759.47109 45.4738816,759.99846 44.823873,760 L26.5743492,760 C25.9248254,760 25.3968254,759.470603 25.3968254,758.821079 L25.3968254,756.224381 C25.3968254,755.935089 25.6313429,755.700571 25.9206349,755.700571 C26.2099269,755.700571 26.4444444,755.935089 26.4444444,756.224381 L26.4444444,758.821079 C26.4451831,758.892746 26.5026949,758.950876 26.5743492,758.952381 L44.823873,758.952381 C44.8940802,758.948128 44.9496388,758.891362 44.952381,758.821079 L44.952381,739.180317 C44.952381,739.110476 44.8909206,739.047619 44.823873,739.047619 L26.5743492,739.047619 C26.5045079,739.047619 26.4444444,739.109079 26.4444444,739.180317 L26.4444444,741.862222 C26.4444444,742.151514 26.2099269,742.386032 25.9206349,742.386032 C25.6313429,742.386032 25.3968254,742.151514 25.3968254,741.862222 L25.3968254,739.180317 C25.3968236,738.529536 25.9235691,738.00154 26.5743492,738 L44.823873,738 Z M24.5238095,746.498286 C24.2345175,746.498286 24,746.263768 24,745.974476 C24,745.685184 24.2345175,745.450667 24.5238095,745.450667 L28.7142857,745.450667 C29.0035777,745.450667 29.2380952,745.685184 29.2380952,745.974476 C29.2380952,746.263768 29.0035777,746.498286 28.7142857,746.498286 L24.5238095,746.498286 Z M24.5238095,749.52381 C24.2345175,749.52381 24,749.289292 24,749 C24,748.710708 24.2345175,748.47619 24.5238095,748.47619 L28.7142857,748.47619 C29.0035777,748.47619 29.2380952,748.710708 29.2380952,749 C29.2380952,749.289292 29.0035777,749.52381 28.7142857,749.52381 L24.5238095,749.52381 Z M29.2380952,752.025524 C29.2380952,752.314816 29.0035777,752.549333 28.7142857,752.549333 L24.5238095,752.549333 C24.2345175,752.549333 24,752.314816 24,752.025524 C24,751.736232 24.2345175,751.501714 24.5238095,751.501714 L28.7142857,751.501714 C29.0035777,751.501714 29.2380952,751.736232 29.2380952,752.025524 Z M29.8821587,754.148825 C30.6096847,752.38118 32.058516,751.009111 33.8631111,750.378794 C32.6394921,749.623111 31.8153651,748.280762 31.8153651,746.738667 C31.8153651,744.371048 33.7415873,742.444825 36.1078095,742.444825 C38.4740317,742.444825 40.400254,744.369651 40.400254,746.73727 C40.3957907,748.225287 39.6195075,749.604406 38.3497143,750.38019 C40.133529,751.003572 41.5714798,752.350731 42.3097143,754.090159 C42.4213038,754.356703 42.2972617,754.66338 42.031746,754.777397 C41.765197,754.888169 41.4590957,754.76436 41.3445079,754.499429 C40.4519365,752.391619 38.3972063,751.029714 36.1078095,751.029714 C33.8037196,751.024852 31.7259482,752.415186 30.8515556,754.546921 C30.7699861,754.742689 30.5789388,754.870421 30.3668571,754.870984 C30.1917885,754.872356 30.0277349,754.785709 29.9301675,754.640342 C29.8326002,754.494975 29.8145644,754.310324 29.8821587,754.148825 Z M32.8629841,746.738667 C32.8652909,748.529233 34.3158478,749.980414 36.1064127,749.983492 C37.895746,749.983492 39.3512381,748.528 39.3512381,746.738667 C39.3512381,744.949333 37.895746,743.493841 36.1064127,743.493841 C34.3155291,743.496151 32.8645232,744.947782 32.8629841,746.738667 Z" id="icon_员工管理-copy"></path>
        </g>
    </g>
</svg>
