<?xml version="1.0" encoding="UTF-8"?>
<svg width="22px" height="24px" viewBox="0 0 22 24" version="1.1" xmlns="http://www.w3.org/2000/svg" xmlns:xlink="http://www.w3.org/1999/xlink">
    <!-- Generator: Sketch 50 (54983) - http://www.bohemiancoding.com/sketch -->
    <title>icon_设置</title>
    <desc>Created with Sketch.</desc>
    <defs></defs>
    <g id="餐厅后台-UI3.0---UI-KIT" stroke="none" stroke-width="1" fill="none" fill-rule="evenodd">
        <g id="餐厅门店系统-3.0-MAIN-INDEX" transform="translate(-24.000000, -686.000000)" fill="#6f6f6f" fill-rule="nonzero">
            <g id="icon_设置" transform="translate(24.000000, 686.000000)">
                <path d="M11.9552632,23.5078947 L10.0473684,23.5078947 C8.58947368,23.5078947 7.40263158,22.3210526 7.40263158,20.8631579 L7.40263158,20.6052632 C7.40263158,20.0605263 7.12105263,19.5736842 6.65,19.3 C6.17894737,19.0289474 5.61578947,19.0289474 5.14473684,19.3 L4.92368421,19.4289474 C4.31315789,19.7815789 3.6,19.8763158 2.91842105,19.6921053 C2.23684211,19.5105263 1.66578947,19.0710526 1.31315789,18.4605263 L0.360526316,16.8078947 C0.00789473684,16.1973684 -0.0868421053,15.4842105 0.0973684211,14.8026316 C0.278947368,14.1210526 0.718421053,13.55 1.32894737,13.1973684 L1.55,13.0684211 C2.02105263,12.7973684 2.30263158,12.3078947 2.30263158,11.7631579 C2.30263158,11.2184211 2.02105263,10.7315789 1.55,10.4578947 L1.32894737,10.3289474 C0.718421053,9.97631579 0.278947368,9.40526316 0.0973684211,8.72368421 C-0.0842105263,8.04210526 0.00789473684,7.32894737 0.360526316,6.71842105 L1.31315789,5.06578947 C1.64473684,4.48947368 2.17894737,4.06315789 2.81315789,3.86578947 C3.44473684,3.66842105 4.12105263,3.71315789 4.71578947,3.99210526 C5.04473684,4.14473684 5.18684211,4.53684211 5.03421053,4.86578947 C4.88157895,5.19473684 4.48947368,5.33684211 4.16052632,5.18421053 C3.54210526,4.89736842 2.79210526,5.13421053 2.45263158,5.72631579 L1.5,7.37894737 C1.32368421,7.68684211 1.27631579,8.04473684 1.36842105,8.38684211 C1.46052632,8.72894737 1.67894737,9.01578947 1.98684211,9.19210526 L2.20789474,9.32105263 C3.09210526,9.83157895 3.61842105,10.7447368 3.61842105,11.7657895 C3.61842105,12.7868421 3.09210526,13.7 2.20789474,14.2105263 L1.98684211,14.3394737 C1.67894737,14.5157895 1.46052632,14.8026316 1.36842105,15.1447368 C1.27631579,15.4868421 1.32368421,15.8447368 1.5,16.1526316 L2.45263158,17.8052632 C2.62894737,18.1131579 2.91578947,18.3315789 3.25789474,18.4236842 C3.6,18.5157895 3.95789474,18.4684211 4.26578947,18.2921053 L4.48684211,18.1631579 C5.37105263,17.6526316 6.42368421,17.6526316 7.30789474,18.1631579 C8.19210526,18.6736842 8.71842105,19.5868421 8.71842105,20.6078947 L8.71842105,20.8657895 C8.71842105,21.5973684 9.31315789,22.1947368 10.0473684,22.1947368 L11.9552632,22.1947368 C12.6868421,22.1947368 13.2842105,21.6 13.2842105,20.8657895 L13.2842105,20.6052632 C13.2842105,19.5842105 13.8105263,18.6710526 14.6947368,18.1605263 C15.5789474,17.65 16.6315789,17.65 17.5157895,18.1605263 L17.7368421,18.2894737 C18.0447368,18.4657895 18.4026316,18.5131579 18.7447368,18.4210526 C19.0868421,18.3289474 19.3736842,18.1105263 19.55,17.8026316 L20.5026316,16.15 C20.8684211,15.5157895 20.65,14.7026316 20.0157895,14.3342105 L19.7947368,14.2052632 C18.9105263,13.6947368 18.3842105,12.7815789 18.3842105,11.7605263 C18.3842105,10.7394737 18.9105263,9.82631579 19.7947368,9.31578947 L20.0157895,9.18684211 C20.3236842,9.01052632 20.5421053,8.72368421 20.6342105,8.38157895 C20.7263158,8.03947368 20.6789474,7.68157895 20.5026316,7.37368421 L19.5526316,5.72894737 C19.1868421,5.09473684 18.3736842,4.87631579 17.7368421,5.24210526 L17.5157895,5.37105263 C16.6315789,5.88157895 15.5763158,5.88157895 14.6947368,5.37105263 C13.8105263,4.86052632 13.2842105,3.94736842 13.2842105,2.92631579 L13.2842105,2.66842105 C13.2842105,1.93684211 12.6894737,1.33947368 11.9552632,1.33947368 L10.0473684,1.33947368 C9.31578947,1.33947368 8.71842105,1.93421053 8.71842105,2.66842105 L8.71842105,2.92631579 C8.71842105,3.5 8.55,4.04736842 8.23421053,4.51052632 C8.02894737,4.81052632 7.62105263,4.88947368 7.32105263,4.68421053 C7.02105263,4.47894737 6.94210526,4.07105263 7.14736842,3.77105263 C7.31578947,3.52631579 7.40263158,3.23421053 7.40263158,2.92631579 L7.40263158,2.66842105 C7.40263158,1.21052632 8.58947368,0.0236842105 10.0473684,0.0236842105 L11.9552632,0.0236842105 C13.4131579,0.0236842105 14.6,1.21052632 14.6,2.66842105 L14.6,2.92631579 C14.6,3.47105263 14.8815789,3.95789474 15.3526316,4.23157895 C15.8236842,4.50263158 16.3868421,4.50263158 16.8578947,4.23157895 L17.0789474,4.10263158 C18.3421053,3.37368421 19.9631579,3.80789474 20.6921053,5.07105263 L21.6447368,6.72368421 C21.9973684,7.33421053 22.0921053,8.04736842 21.9078947,8.72894737 C21.7263158,9.41052632 21.2868421,9.98157895 20.6763158,10.3342105 L20.4552632,10.4631579 C19.9842105,10.7342105 19.7026316,11.2236842 19.7026316,11.7684211 C19.7026316,12.3131579 19.9842105,12.8 20.4552632,13.0736842 L20.6763158,13.2026316 C21.2868421,13.5552632 21.7263158,14.1263158 21.9078947,14.8078947 C22.0894737,15.4894737 21.9973684,16.2026316 21.6447368,16.8131579 L20.6921053,18.4657895 C20.3394737,19.0763158 19.7684211,19.5157895 19.0868421,19.6973684 C18.4052632,19.8789474 17.6921053,19.7868421 17.0815789,19.4342105 L16.8605263,19.3052632 C16.3894737,19.0342105 15.8263158,19.0342105 15.3552632,19.3052632 C14.8842105,19.5763158 14.6026316,20.0657895 14.6026316,20.6105263 L14.6026316,20.8684211 C14.6,22.3210526 13.4157895,23.5078947 11.9552632,23.5078947 Z" id="Shape"></path>
                <path d="M11.0026316,16.25 C8.53157895,16.25 6.52105263,14.2394737 6.52105263,11.7684211 C6.52105263,9.29736842 8.53157895,7.28684211 11.0026316,7.28684211 C13.4736842,7.28684211 15.4842105,9.29736842 15.4842105,11.7684211 C15.4842105,14.2394737 13.4736842,16.25 11.0026316,16.25 Z M11.0026316,8.6 C9.25789474,8.6 7.83684211,10.0210526 7.83684211,11.7657895 C7.83684211,13.5105263 9.25789474,14.9315789 11.0026316,14.9315789 C12.7473684,14.9315789 14.1684211,13.5105263 14.1684211,11.7657895 C14.1684211,10.0210526 12.7473684,8.6 11.0026316,8.6 Z" id="Shape"></path>
            </g>
        </g>
    </g>
</svg>
