<?xml version="1.0" encoding="UTF-8"?>
<svg width="24px" height="25px" viewBox="0 0 24 25" version="1.1" xmlns="http://www.w3.org/2000/svg" xmlns:xlink="http://www.w3.org/1999/xlink">
    <!-- Generator: Sketch 50.2 (55047) - http://www.bohemiancoding.com/sketch -->
    <title>icon_营业设定</title>
    <desc>Created with Sketch.</desc>
    <defs></defs>
    <g id="餐厅后台-UI3.0---UI-KIT" stroke="none" stroke-width="1" fill="none" fill-rule="evenodd">
        <g id="餐厅门店系统-3.0-MAIN-INDEX" transform="translate(-23.000000, -132.000000)">
            <g id="icon_营业设定" transform="translate(23.000000, 132.000000)">
                <rect id="Rectangle-92" stroke="#6f6f6f" x="0.5" y="0.5" width="23" height="17" rx="2"></rect>
                <path d="M11.5015936,18.3936165 L12.4512449,17.4439651 C12.6734423,17.2217678 13.0419521,17.2300245 13.2596835,17.4477559 C13.4839744,17.6720468 13.4901806,18.0294881 13.2634742,18.2561944 L12.3138229,19.2058458 L16.8517827,23.7438056 C17.07398,23.9660029 17.0657233,24.3345127 16.8479919,24.5522441 C16.623701,24.776535 16.2662597,24.7827412 16.0395534,24.5560349 L11.5015936,20.0180751 L6.96363379,24.5560349 C6.74143644,24.7782322 6.37292664,24.7699755 6.15519526,24.5522441 C5.93090433,24.3279532 5.92469815,23.9705119 6.1514045,23.7438056 L10.6893643,19.2058458 L9.73971293,18.2561944 C9.51751558,18.0339971 9.52577229,17.6654873 9.74350368,17.4477559 C9.9677946,17.223465 10.3252359,17.2172588 10.5519422,17.4439651 L11.5015936,18.3936165 Z" id="Rectangle-93" fill="#6f6f6f"></path>
                <path d="M5,6.50639765 C5,5.6744372 5.66579723,5 6.5,5 L6.5,5 C7.32842712,5 8,5.67646277 8,6.50639765 L8,14 L5,14 L5,6.50639765 Z" id="Rectangle-96" fill="#6f6f6f"></path>
                <path d="M10,11.5 C10,10.6715729 10.6657972,10 11.5,10 L11.5,10 C12.3284271,10 13,10.6657972 13,11.5 L13,13 L10,13 L10,11.5 Z" id="Rectangle-96-Copy" fill="#6f6f6f"></path>
                <path d="M16,9.49857602 C16,8.67093534 16.6657972,8 17.5,8 L17.5,8 C18.3284271,8 19,8.66502976 19,9.49857602 L19,14 L16,14 L16,9.49857602 Z" id="Rectangle-96-Copy-2" fill="#6f6f6f"></path>
            </g>
        </g>
    </g>
</svg>
