<?xml version="1.0" encoding="UTF-8"?>
<svg width="26px" height="22px" viewBox="0 0 26 22" version="1.1" xmlns="http://www.w3.org/2000/svg" xmlns:xlink="http://www.w3.org/1999/xlink">
    <!-- Generator: Sketch 50 (54983) - http://www.bohemiancoding.com/sketch -->
    <title>icon_门店管理</title>
    <desc>Created with Sketch.</desc>
    <defs></defs>
    <g id="餐厅后台-UI3.0---UI-KIT" stroke="none" stroke-width="1" fill="none" fill-rule="evenodd">
        <g id="餐厅门店系统-3.0-MAIN-INDEX" transform="translate(-22.000000, -80.000000)">
            <g id="icon_门店管理" transform="translate(22.000000, 80.000000)">
                <path d="M4.34832954,1.10763054 L1.47697671,8.32729156 C1.20036896,9.02278749 1.52299029,9.5 2.27092969,9.5 L23.7299525,9.5 C24.4814643,9.5 24.8018891,9.02624689 24.5239055,8.32729156 L21.6525526,1.10763054 C21.5263976,0.790429266 21.0999,0.5 20.7591451,0.5 L5.24173702,0.5 C4.90333164,0.5 4.47446217,0.790485656 4.34832954,1.10763054 Z" id="Rectangle-33" stroke="#6f6f6f"></path>
                <path d="M3.9,9.5 L3.9,19.8000002 C3.9,20.6255461 4.57350997,21.3000002 5.40040132,21.3000002 L20.5995987,21.3000002 C21.4253785,21.3000002 22.1,20.6266054 22.1,19.8000002 L22.1,9.5 L3.9,9.5 Z" id="Rectangle-34" stroke="#6f6f6f"></path>
                <path d="M15,15.9901183 C15,14.8910063 15.8877296,14 17,14 C18.1045695,14 19,14.8997369 19,15.9901183 L19,19.6 L15,19.6 L15,15.9901183 Z M17.6,17.6 C17.9313708,17.6 18.2,17.3313708 18.2,17 C18.2,16.6686292 17.9313708,16.4 17.6,16.4 C17.2686292,16.4 17,16.6686292 17,17 C17,17.3313708 17.2686292,17.6 17.6,17.6 Z" id="Rectangle-35" fill="#6f6f6f"></path>
                <path d="M9.4,12 L11.4,12 L11.4,14 L9.4,14 L9.4,12 Z M8.6,12 L8.6,14 L6.6,14 L6.6,12 L8.6,12 Z M9.4,16.8 L9.4,14.8 L11.4,14.8 L11.4,16.8 L9.4,16.8 Z M8.6,16.8 L6.6,16.8 L6.6,14.8 L8.6,14.8 L8.6,16.8 Z" id="Rectangle-36" fill="#6f6f6f"></path>
            </g>
        </g>
    </g>
</svg>
